<?xml version="1.0" encoding="UTF-8" standalone="no"?>
<svg
   xmlns:dc="http://purl.org/dc/elements/1.1/"
   xmlns:cc="http://creativecommons.org/ns#"
   xmlns:rdf="http://www.w3.org/1999/02/22-rdf-syntax-ns#"
   xmlns:svg="http://www.w3.org/2000/svg"
   xmlns="http://www.w3.org/2000/svg"
   xmlns:sodipodi="http://sodipodi.sourceforge.net/DTD/sodipodi-0.dtd"
   xmlns:inkscape="http://www.inkscape.org/namespaces/inkscape"
   fill-opacity="1"
   color-rendering="auto"
   color-interpolation="auto"
   text-rendering="auto"
   stroke="black"
   stroke-linecap="square"
   width="1086"
   stroke-miterlimit="10"
   shape-rendering="auto"
   stroke-opacity="1"
   fill="black"
   stroke-dasharray="none"
   font-weight="normal"
   stroke-width="1"
   height="636"
   font-family="'Dialog'"
   font-style="normal"
   stroke-linejoin="miter"
   font-size="12px"
   stroke-dashoffset="0"
   image-rendering="auto"
   id="svg2"
   version="1.1"
   inkscape:version="0.91 r13725"
   sodipodi:docname="fetch_decode.svg">
  <metadata
     id="metadata444">
    <rdf:RDF>
      <cc:Work
         rdf:about="">
        <dc:format>image/svg+xml</dc:format>
        <dc:type
           rdf:resource="http://purl.org/dc/dcmitype/StillImage" />
        <dc:title></dc:title>
      </cc:Work>
    </rdf:RDF>
  </metadata>
  <sodipodi:namedview
     pagecolor="#ffffff"
     bordercolor="#666666"
     borderopacity="1"
     objecttolerance="10"
     gridtolerance="10"
     guidetolerance="10"
     inkscape:pageopacity="0"
     inkscape:pageshadow="2"
     inkscape:window-width="690"
     inkscape:window-height="480"
     id="namedview442"
     showgrid="false"
     inkscape:zoom="0.26519337"
     inkscape:cx="543"
     inkscape:cy="318"
     inkscape:window-x="0"
     inkscape:window-y="0"
     inkscape:window-maximized="0"
     inkscape:current-layer="svg2" />
  <!--Generated by ySVG 2.5-->
  <defs
     id="genericDefs" />
  <g
     id="g5">
    <defs
       id="defs1">
      <clipPath
         clipPathUnits="userSpaceOnUse"
         id="clipPath1">
        <path
           d="M0 0 L1086 0 L1086 636 L0 636 L0 0 Z"
           id="path9" />
      </clipPath>
      <clipPath
         clipPathUnits="userSpaceOnUse"
         id="clipPath2">
        <path
           d="M-911 -453 L175 -453 L175 183 L-911 183 L-911 -453 Z"
           id="path12" />
      </clipPath>
    </defs>
    <g
       fill="rgb(255,204,0)"
       text-rendering="geometricPrecision"
       shape-rendering="geometricPrecision"
       transform="matrix(1,0,0,1,911,453)"
       stroke="rgb(255,204,0)"
       id="g14">
      <rect
         x="-376.5"
         y="-200.9375"
         clip-path="url(#clipPath2)"
         width="68"
         rx="4"
         ry="4"
         height="242"
         stroke="none"
         id="rect16" />
    </g>
    <g
       text-rendering="geometricPrecision"
       stroke-miterlimit="1.45"
       shape-rendering="geometricPrecision"
       transform="matrix(1,0,0,1,911,453)"
       stroke-linecap="butt"
       id="g18">
      <rect
         x="-376.5"
         y="-200.9375"
         clip-path="url(#clipPath2)"
         fill="none"
         width="68"
         rx="4"
         ry="4"
         height="242"
         id="rect20" />
      <text
         x="-359.835"
         xml:space="preserve"
         y="-82.5742"
         clip-path="url(#clipPath2)"
         font-family="sans-serif"
         stroke="none"
         id="text22">2-Way</text>
      <text
         x="-357.5059"
         xml:space="preserve"
         y="-67.873"
         clip-path="url(#clipPath2)"
         font-family="sans-serif"
         stroke="none"
         id="text24">Fetch</text>
    </g>
    <g
       fill="rgb(255,204,0)"
       text-rendering="geometricPrecision"
       shape-rendering="geometricPrecision"
       transform="matrix(1,0,0,1,911,453)"
       stroke="rgb(255,204,0)"
       id="g26">
      <rect
         x="-190.5"
         y="-34"
         clip-path="url(#clipPath2)"
         width="79"
         rx="4"
         ry="4"
         height="74"
         stroke="none"
         id="rect28" />
    </g>
    <g
       text-rendering="geometricPrecision"
       stroke-miterlimit="1.45"
       shape-rendering="geometricPrecision"
       transform="matrix(1,0,0,1,911,453)"
       stroke-linecap="butt"
       id="g30">
      <rect
         x="-190.5"
         y="-34"
         clip-path="url(#clipPath2)"
         fill="none"
         width="79"
         rx="4"
         ry="4"
         height="74"
         id="rect32" />
      <text
         x="-178.6826"
         xml:space="preserve"
         y="7.7139"
         clip-path="url(#clipPath2)"
         font-family="sans-serif"
         stroke="none"
         id="text34">Decoder 2</text>
    </g>
    <g
       fill="rgb(255,204,0)"
       text-rendering="geometricPrecision"
       shape-rendering="geometricPrecision"
       transform="matrix(1,0,0,1,911,453)"
       stroke="rgb(255,204,0)"
       id="g36">
      <rect
         x="-190.5"
         y="-202"
         clip-path="url(#clipPath2)"
         width="79"
         rx="4"
         ry="4"
         height="74"
         stroke="none"
         id="rect38" />
    </g>
    <g
       text-rendering="geometricPrecision"
       stroke-miterlimit="1.45"
       shape-rendering="geometricPrecision"
       transform="matrix(1,0,0,1,911,453)"
       stroke-linecap="butt"
       id="g40">
      <rect
         x="-190.5"
         y="-202"
         clip-path="url(#clipPath2)"
         fill="none"
         width="79"
         rx="4"
         ry="4"
         height="74"
         id="rect42" />
      <text
         x="-178.6826"
         xml:space="preserve"
         y="-160.2861"
         clip-path="url(#clipPath2)"
         font-family="sans-serif"
         stroke="none"
         id="text44">Decoder 1</text>
    </g>
    <g
       fill="rgb(104,176,227)"
       text-rendering="geometricPrecision"
       shape-rendering="geometricPrecision"
       transform="matrix(1,0,0,1,911,453)"
       stroke="rgb(104,176,227)"
       id="g46">
      <path
         d="M-272.5 -306.7324 L-272.5 168 L-204.5 168 L-204.5 -306.7324 ZM-271.5 -284.7324 L-271.5 167 L-205.5 167 L-205.5 -284.7324 Z"
         fill-rule="evenodd"
         clip-path="url(#clipPath2)"
         stroke="none"
         id="path48" />
    </g>
    <g
       stroke-linecap="butt"
       transform="matrix(1,0,0,1,911,453)"
       fill="white"
       text-rendering="geometricPrecision"
       font-family="sans-serif"
       shape-rendering="geometricPrecision"
       stroke="white"
       stroke-miterlimit="1.45"
       id="g50">
      <text
         x="-270.5"
         xml:space="preserve"
         y="-292.668"
         clip-path="url(#clipPath2)"
         stroke="none"
         id="text52">F/D</text>
    </g>
    <g
       fill="rgb(255,204,0)"
       text-rendering="geometricPrecision"
       shape-rendering="geometricPrecision"
       transform="matrix(1,0,0,1,911,453)"
       stroke="rgb(255,204,0)"
       id="g54">
      <rect
         x="-257.5"
         width="30"
         height="30"
         y="-180"
         clip-path="url(#clipPath2)"
         stroke="none"
         id="rect56" />
    </g>
    <g
       text-rendering="geometricPrecision"
       stroke-miterlimit="1.45"
       shape-rendering="geometricPrecision"
       transform="matrix(1,0,0,1,911,453)"
       stroke-linecap="butt"
       id="g58">
      <rect
         fill="none"
         x="-257.5"
         width="30"
         height="30"
         y="-180"
         clip-path="url(#clipPath2)"
         id="rect60" />
      <text
         x="-247.5039"
         xml:space="preserve"
         y="-160.2861"
         clip-path="url(#clipPath2)"
         font-family="sans-serif"
         stroke="none"
         id="text62">I1</text>
    </g>
    <g
       fill="rgb(255,204,0)"
       text-rendering="geometricPrecision"
       shape-rendering="geometricPrecision"
       transform="matrix(1,0,0,1,911,453)"
       stroke="rgb(255,204,0)"
       id="g64">
      <rect
         x="-257.5"
         width="30"
         height="30"
         y="-12"
         clip-path="url(#clipPath2)"
         stroke="none"
         id="rect66" />
    </g>
    <g
       text-rendering="geometricPrecision"
       stroke-miterlimit="1.45"
       shape-rendering="geometricPrecision"
       transform="matrix(1,0,0,1,911,453)"
       stroke-linecap="butt"
       id="g68">
      <rect
         fill="none"
         x="-257.5"
         width="30"
         height="30"
         y="-12"
         clip-path="url(#clipPath2)"
         id="rect70" />
      <text
         x="-247.5039"
         xml:space="preserve"
         y="7.7139"
         clip-path="url(#clipPath2)"
         font-family="sans-serif"
         stroke="none"
         id="text72">I2</text>
    </g>
    <g
       fill="rgb(255,204,0)"
       text-rendering="geometricPrecision"
       shape-rendering="geometricPrecision"
       transform="matrix(1,0,0,1,911,453)"
       stroke="rgb(255,204,0)"
       id="g74">
      <rect
         x="-257.5"
         width="30"
         height="30"
         y="118"
         clip-path="url(#clipPath2)"
         stroke="none"
         id="rect76" />
    </g>
    <g
       text-rendering="geometricPrecision"
       stroke-miterlimit="1.45"
       shape-rendering="geometricPrecision"
       transform="matrix(1,0,0,1,911,453)"
       stroke-linecap="butt"
       id="g78">
      <rect
         fill="none"
         x="-257.5"
         width="30"
         height="30"
         y="118"
         clip-path="url(#clipPath2)"
         id="rect80" />
      <text
         x="-250.835"
         xml:space="preserve"
         y="137.7139"
         clip-path="url(#clipPath2)"
         font-family="sans-serif"
         stroke="none"
         id="text82">PC</text>
    </g>
    <g
       fill="rgb(255,204,0)"
       text-rendering="geometricPrecision"
       shape-rendering="geometricPrecision"
       transform="matrix(1,0,0,1,911,453)"
       stroke="rgb(255,204,0)"
       id="g84">
      <rect
         x="-627.6995"
         width="68"
         height="30"
         y="-106.7662"
         clip-path="url(#clipPath2)"
         stroke="none"
         id="rect86" />
    </g>
    <g
       text-rendering="geometricPrecision"
       stroke-miterlimit="1.45"
       shape-rendering="geometricPrecision"
       transform="matrix(1,0,0,1,911,453)"
       stroke-linecap="butt"
       id="g88">
      <rect
         fill="none"
         x="-627.6995"
         width="68"
         height="30"
         y="-106.7662"
         clip-path="url(#clipPath2)"
         id="rect90" />
      <text
         x="-602.0345"
         xml:space="preserve"
         y="-87.0523"
         clip-path="url(#clipPath2)"
         font-family="sans-serif"
         stroke="none"
         id="text92">PC</text>
    </g>
    <g
       fill="rgb(255,204,0)"
       text-rendering="geometricPrecision"
       shape-rendering="geometricPrecision"
       transform="matrix(1,0,0,1,911,453)"
       stroke="rgb(255,204,0)"
       id="g94">
      <path
         d="M-532.7599 -106.7662 L-505.7599 -106.7662 L-508.7599 -91.7662 L-505.7599 -76.7662 L-532.7599 -76.7662 L-535.7599 -91.7662 Z"
         fill-rule="evenodd"
         clip-path="url(#clipPath2)"
         stroke="none"
         id="path96" />
    </g>
    <g
       text-rendering="geometricPrecision"
       stroke-miterlimit="1.45"
       shape-rendering="geometricPrecision"
       transform="matrix(1,0,0,1,911,453)"
       stroke-linecap="butt"
       id="g98">
      <path
         fill="none"
         d="M-532.7599 -106.7662 L-505.7599 -106.7662 L-508.7599 -91.7662 L-505.7599 -76.7662 L-532.7599 -76.7662 L-535.7599 -91.7662 Z"
         fill-rule="evenodd"
         clip-path="url(#clipPath2)"
         id="path100" />
      <text
         x="-527.6007"
         xml:space="preserve"
         y="-87.0523"
         clip-path="url(#clipPath2)"
         font-family="sans-serif"
         stroke="none"
         id="text102">+2</text>
    </g>
    <g
       fill="rgb(255,204,0)"
       text-rendering="geometricPrecision"
       shape-rendering="geometricPrecision"
       transform="matrix(1,0,0,1,911,453)"
       stroke="rgb(255,204,0)"
       id="g104">
      <rect
         x="-561.4964"
         y="-220.9375"
         clip-path="url(#clipPath2)"
         width="112.5"
         rx="4"
         ry="4"
         height="90.1968"
         stroke="none"
         id="rect106" />
    </g>
    <g
       text-rendering="geometricPrecision"
       stroke-miterlimit="1.45"
       shape-rendering="geometricPrecision"
       transform="matrix(1,0,0,1,911,453)"
       stroke-linecap="butt"
       id="g108">
      <rect
         x="-561.4964"
         y="-220.9375"
         clip-path="url(#clipPath2)"
         fill="none"
         width="112.5"
         rx="4"
         ry="4"
         height="90.1968"
         id="rect110" />
      <text
         x="-524.2571"
         xml:space="preserve"
         y="-178.4758"
         clip-path="url(#clipPath2)"
         font-family="sans-serif"
         stroke="none"
         id="text112">Branch</text>
      <text
         x="-529.2552"
         xml:space="preserve"
         y="-163.7747"
         clip-path="url(#clipPath2)"
         font-family="sans-serif"
         stroke="none"
         id="text114">Predictor</text>
      <text
         x="-849.2407"
         xml:space="preserve"
         y="-178.4758"
         clip-path="url(#clipPath2)"
         font-family="sans-serif"
         stroke="none"
         id="text116">PC computed</text>
      <text
         x="-888.2583"
         xml:space="preserve"
         y="-163.7747"
         clip-path="url(#clipPath2)"
         font-family="sans-serif"
         stroke="none"
         id="text118">From Branch Execute Stage</text>
      <text
         x="-784.2507"
         xml:space="preserve"
         y="-302.075"
         clip-path="url(#clipPath2)"
         font-family="sans-serif"
         stroke="none"
         id="text120">New Branch Entry Data</text>
      <text
         x="-761.9001"
         xml:space="preserve"
         y="-287.3738"
         clip-path="url(#clipPath2)"
         font-family="sans-serif"
         stroke="none"
         id="text122">(From Decode)</text>
    </g>
    <g
       fill="rgb(255,204,0)"
       text-rendering="geometricPrecision"
       shape-rendering="geometricPrecision"
       transform="matrix(1,0,0,1,911,453)"
       stroke="rgb(255,204,0)"
       id="g124">
      <rect
         x="-38.97"
         width="30"
         height="30"
         y="-284.303"
         clip-path="url(#clipPath2)"
         stroke="none"
         id="rect126" />
    </g>
    <g
       text-rendering="geometricPrecision"
       stroke-miterlimit="1.45"
       shape-rendering="geometricPrecision"
       transform="matrix(1,0,0,1,911,453)"
       stroke-linecap="butt"
       id="g128">
      <rect
         fill="none"
         x="-38.97"
         width="30"
         height="30"
         y="-284.303"
         clip-path="url(#clipPath2)"
         id="rect130" />
      <text
         x="-34.9768"
         xml:space="preserve"
         y="-264.5891"
         clip-path="url(#clipPath2)"
         font-family="sans-serif"
         stroke="none"
         id="text132">R1d</text>
    </g>
    <g
       fill="rgb(255,204,0)"
       text-rendering="geometricPrecision"
       shape-rendering="geometricPrecision"
       transform="matrix(1,0,0,1,911,453)"
       stroke="rgb(255,204,0)"
       id="g134">
      <rect
         x="-38.97"
         width="30"
         height="30"
         y="-249.5353"
         clip-path="url(#clipPath2)"
         stroke="none"
         id="rect136" />
    </g>
    <g
       text-rendering="geometricPrecision"
       stroke-miterlimit="1.45"
       shape-rendering="geometricPrecision"
       transform="matrix(1,0,0,1,911,453)"
       stroke-linecap="butt"
       id="g138">
      <rect
         fill="none"
         x="-38.97"
         width="30"
         height="30"
         y="-249.5353"
         clip-path="url(#clipPath2)"
         id="rect140" />
      <text
         x="-34.3088"
         xml:space="preserve"
         y="-229.8215"
         clip-path="url(#clipPath2)"
         font-family="sans-serif"
         stroke="none"
         id="text142">F1d</text>
    </g>
    <g
       fill="rgb(255,204,0)"
       text-rendering="geometricPrecision"
       shape-rendering="geometricPrecision"
       transform="matrix(1,0,0,1,911,453)"
       stroke="rgb(255,204,0)"
       id="g144">
      <rect
         x="-38.97"
         width="30"
         height="30"
         y="-214.7677"
         clip-path="url(#clipPath2)"
         stroke="none"
         id="rect146" />
    </g>
    <g
       text-rendering="geometricPrecision"
       stroke-miterlimit="1.45"
       shape-rendering="geometricPrecision"
       transform="matrix(1,0,0,1,911,453)"
       stroke-linecap="butt"
       id="g148">
      <rect
         fill="none"
         x="-38.97"
         width="30"
         height="30"
         y="-214.7677"
         clip-path="url(#clipPath2)"
         id="rect150" />
      <text
         x="-38.3137"
         xml:space="preserve"
         y="-195.0538"
         clip-path="url(#clipPath2)"
         font-family="sans-serif"
         stroke="none"
         id="text152">R1o1</text>
    </g>
    <g
       fill="rgb(255,204,0)"
       text-rendering="geometricPrecision"
       shape-rendering="geometricPrecision"
       transform="matrix(1,0,0,1,911,453)"
       stroke="rgb(255,204,0)"
       id="g154">
      <rect
         x="-38.97"
         width="30"
         height="30"
         y="-180"
         clip-path="url(#clipPath2)"
         stroke="none"
         id="rect156" />
    </g>
    <g
       text-rendering="geometricPrecision"
       stroke-miterlimit="1.45"
       shape-rendering="geometricPrecision"
       transform="matrix(1,0,0,1,911,453)"
       stroke-linecap="butt"
       id="g158">
      <rect
         fill="none"
         x="-38.97"
         width="30"
         height="30"
         y="-180"
         clip-path="url(#clipPath2)"
         id="rect160" />
      <text
         x="-38.3137"
         xml:space="preserve"
         y="-160.2861"
         clip-path="url(#clipPath2)"
         font-family="sans-serif"
         stroke="none"
         id="text162">R1o2</text>
    </g>
    <g
       fill="rgb(255,204,0)"
       text-rendering="geometricPrecision"
       shape-rendering="geometricPrecision"
       transform="matrix(1,0,0,1,911,453)"
       stroke="rgb(255,204,0)"
       id="g164">
      <rect
         x="-38.97"
         width="30"
         height="30"
         y="-144.2707"
         clip-path="url(#clipPath2)"
         stroke="none"
         id="rect166" />
    </g>
    <g
       text-rendering="geometricPrecision"
       stroke-miterlimit="1.45"
       shape-rendering="geometricPrecision"
       transform="matrix(1,0,0,1,911,453)"
       stroke-linecap="butt"
       id="g168">
      <rect
         fill="none"
         x="-38.97"
         width="30"
         height="30"
         y="-144.2707"
         clip-path="url(#clipPath2)"
         id="rect170" />
      <text
         x="-34.3088"
         xml:space="preserve"
         y="-124.5568"
         clip-path="url(#clipPath2)"
         font-family="sans-serif"
         stroke="none"
         id="text172">F1o</text>
    </g>
    <g
       fill="rgb(255,204,0)"
       text-rendering="geometricPrecision"
       shape-rendering="geometricPrecision"
       transform="matrix(1,0,0,1,911,453)"
       stroke="rgb(255,204,0)"
       id="g174">
      <rect
         x="-38.97"
         width="30"
         height="30"
         y="-59.5353"
         clip-path="url(#clipPath2)"
         stroke="none"
         id="rect176" />
    </g>
    <g
       text-rendering="geometricPrecision"
       stroke-miterlimit="1.45"
       shape-rendering="geometricPrecision"
       transform="matrix(1,0,0,1,911,453)"
       stroke-linecap="butt"
       id="g178">
      <rect
         fill="none"
         x="-38.97"
         width="30"
         height="30"
         y="-59.5353"
         clip-path="url(#clipPath2)"
         id="rect180" />
      <text
         x="-34.9768"
         xml:space="preserve"
         y="-39.8215"
         clip-path="url(#clipPath2)"
         font-family="sans-serif"
         stroke="none"
         id="text182">R2d</text>
    </g>
    <g
       fill="rgb(255,204,0)"
       text-rendering="geometricPrecision"
       shape-rendering="geometricPrecision"
       transform="matrix(1,0,0,1,911,453)"
       stroke="rgb(255,204,0)"
       id="g184">
      <rect
         x="-38.97"
         width="30"
         height="30"
         y="-24.7677"
         clip-path="url(#clipPath2)"
         stroke="none"
         id="rect186" />
    </g>
    <g
       text-rendering="geometricPrecision"
       stroke-miterlimit="1.45"
       shape-rendering="geometricPrecision"
       transform="matrix(1,0,0,1,911,453)"
       stroke-linecap="butt"
       id="g188">
      <rect
         fill="none"
         x="-38.97"
         width="30"
         height="30"
         y="-24.7677"
         clip-path="url(#clipPath2)"
         id="rect190" />
      <text
         x="-34.3088"
         xml:space="preserve"
         y="-5.0538"
         clip-path="url(#clipPath2)"
         font-family="sans-serif"
         stroke="none"
         id="text192">F2d</text>
    </g>
    <g
       fill="rgb(255,204,0)"
       text-rendering="geometricPrecision"
       shape-rendering="geometricPrecision"
       transform="matrix(1,0,0,1,911,453)"
       stroke="rgb(255,204,0)"
       id="g194">
      <rect
         x="-38.97"
         width="30"
         height="30"
         y="10"
         clip-path="url(#clipPath2)"
         stroke="none"
         id="rect196" />
    </g>
    <g
       text-rendering="geometricPrecision"
       stroke-miterlimit="1.45"
       shape-rendering="geometricPrecision"
       transform="matrix(1,0,0,1,911,453)"
       stroke-linecap="butt"
       id="g198">
      <rect
         fill="none"
         x="-38.97"
         width="30"
         height="30"
         y="10"
         clip-path="url(#clipPath2)"
         id="rect200" />
      <text
         x="-38.3137"
         xml:space="preserve"
         y="29.7139"
         clip-path="url(#clipPath2)"
         font-family="sans-serif"
         stroke="none"
         id="text202">R2o1</text>
    </g>
    <g
       fill="rgb(255,204,0)"
       text-rendering="geometricPrecision"
       shape-rendering="geometricPrecision"
       transform="matrix(1,0,0,1,911,453)"
       stroke="rgb(255,204,0)"
       id="g204">
      <rect
         x="-38.97"
         width="30"
         height="30"
         y="44.7677"
         clip-path="url(#clipPath2)"
         stroke="none"
         id="rect206" />
    </g>
    <g
       text-rendering="geometricPrecision"
       stroke-miterlimit="1.45"
       shape-rendering="geometricPrecision"
       transform="matrix(1,0,0,1,911,453)"
       stroke-linecap="butt"
       id="g208">
      <rect
         fill="none"
         x="-38.97"
         width="30"
         height="30"
         y="44.7677"
         clip-path="url(#clipPath2)"
         id="rect210" />
      <text
         x="-38.3137"
         xml:space="preserve"
         y="64.4815"
         clip-path="url(#clipPath2)"
         font-family="sans-serif"
         stroke="none"
         id="text212">R2o2</text>
    </g>
    <g
       fill="rgb(255,204,0)"
       text-rendering="geometricPrecision"
       shape-rendering="geometricPrecision"
       transform="matrix(1,0,0,1,911,453)"
       stroke="rgb(255,204,0)"
       id="g214">
      <rect
         x="-38.97"
         width="30"
         height="30"
         y="80.497"
         clip-path="url(#clipPath2)"
         stroke="none"
         id="rect216" />
    </g>
    <g
       text-rendering="geometricPrecision"
       stroke-miterlimit="1.45"
       shape-rendering="geometricPrecision"
       transform="matrix(1,0,0,1,911,453)"
       stroke-linecap="butt"
       id="g218">
      <rect
         fill="none"
         x="-38.97"
         width="30"
         height="30"
         y="80.497"
         clip-path="url(#clipPath2)"
         id="rect220" />
      <text
         x="-34.3088"
         xml:space="preserve"
         y="100.2109"
         clip-path="url(#clipPath2)"
         font-family="sans-serif"
         stroke="none"
         id="text222">F2o</text>
    </g>
    <g
       fill="rgb(255,204,0)"
       text-rendering="geometricPrecision"
       shape-rendering="geometricPrecision"
       transform="matrix(1,0,0,1,911,453)"
       stroke="rgb(255,204,0)"
       id="g224">
      <rect
         x="106"
         width="54"
         height="30"
         y="44.7677"
         clip-path="url(#clipPath2)"
         stroke="none"
         id="rect226" />
    </g>
    <g
       text-rendering="geometricPrecision"
       stroke-miterlimit="1.45"
       shape-rendering="geometricPrecision"
       transform="matrix(1,0,0,1,911,453)"
       stroke-linecap="butt"
       id="g228">
      <rect
         fill="none"
         x="106"
         width="54"
         height="30"
         y="44.7677"
         clip-path="url(#clipPath2)"
         id="rect230" />
      <text
         x="112.0088"
         xml:space="preserve"
         y="64.4815"
         clip-path="url(#clipPath2)"
         font-family="sans-serif"
         stroke="none"
         id="text232">F-WAW</text>
    </g>
    <g
       fill="rgb(255,204,0)"
       text-rendering="geometricPrecision"
       shape-rendering="geometricPrecision"
       transform="matrix(1,0,0,1,911,453)"
       stroke="rgb(255,204,0)"
       id="g234">
      <rect
         x="106"
         width="54"
         height="30"
         y="-249.5353"
         clip-path="url(#clipPath2)"
         stroke="none"
         id="rect236" />
    </g>
    <g
       text-rendering="geometricPrecision"
       stroke-miterlimit="1.45"
       shape-rendering="geometricPrecision"
       transform="matrix(1,0,0,1,911,453)"
       stroke-linecap="butt"
       id="g238">
      <rect
         fill="none"
         x="106"
         width="54"
         height="30"
         y="-249.5353"
         clip-path="url(#clipPath2)"
         id="rect240" />
      <text
         x="109.334"
         xml:space="preserve"
         y="-229.8215"
         clip-path="url(#clipPath2)"
         font-family="sans-serif"
         stroke="none"
         id="text242">D-RAW1</text>
    </g>
    <g
       fill="rgb(255,204,0)"
       text-rendering="geometricPrecision"
       shape-rendering="geometricPrecision"
       transform="matrix(1,0,0,1,911,453)"
       stroke="rgb(255,204,0)"
       id="g244">
      <rect
         x="106"
         width="54"
         height="30"
         y="-144.2707"
         clip-path="url(#clipPath2)"
         stroke="none"
         id="rect246" />
    </g>
    <g
       text-rendering="geometricPrecision"
       stroke-miterlimit="1.45"
       shape-rendering="geometricPrecision"
       transform="matrix(1,0,0,1,911,453)"
       stroke-linecap="butt"
       id="g248">
      <rect
         fill="none"
         x="106"
         width="54"
         height="30"
         y="-144.2707"
         clip-path="url(#clipPath2)"
         id="rect250" />
      <text
         x="113.3389"
         xml:space="preserve"
         y="-124.5568"
         clip-path="url(#clipPath2)"
         font-family="sans-serif"
         stroke="none"
         id="text252">F-RAW</text>
    </g>
    <g
       fill="rgb(255,204,0)"
       text-rendering="geometricPrecision"
       shape-rendering="geometricPrecision"
       transform="matrix(1,0,0,1,911,453)"
       stroke="rgb(255,204,0)"
       id="g254">
      <rect
         x="106"
         width="54"
         height="30"
         y="-66.8183"
         clip-path="url(#clipPath2)"
         stroke="none"
         id="rect256" />
    </g>
    <g
       text-rendering="geometricPrecision"
       stroke-miterlimit="1.45"
       shape-rendering="geometricPrecision"
       transform="matrix(1,0,0,1,911,453)"
       stroke-linecap="butt"
       id="g258">
      <rect
         fill="none"
         x="106"
         width="54"
         height="30"
         y="-66.8183"
         clip-path="url(#clipPath2)"
         id="rect260" />
      <text
         x="111.3408"
         xml:space="preserve"
         y="-47.1044"
         clip-path="url(#clipPath2)"
         font-family="sans-serif"
         stroke="none"
         id="text262">D-WAW</text>
    </g>
    <g
       fill="rgb(255,204,0)"
       text-rendering="geometricPrecision"
       shape-rendering="geometricPrecision"
       transform="matrix(1,0,0,1,911,453)"
       stroke="rgb(255,204,0)"
       id="g264">
      <rect
         x="106"
         width="54"
         height="30"
         y="-210.5353"
         clip-path="url(#clipPath2)"
         stroke="none"
         id="rect266" />
    </g>
    <g
       text-rendering="geometricPrecision"
       stroke-miterlimit="1.45"
       shape-rendering="geometricPrecision"
       transform="matrix(1,0,0,1,911,453)"
       stroke-linecap="butt"
       id="g268">
      <rect
         fill="none"
         x="106"
         width="54"
         height="30"
         y="-210.5353"
         clip-path="url(#clipPath2)"
         id="rect270" />
      <text
         x="109.334"
         xml:space="preserve"
         y="-190.8215"
         clip-path="url(#clipPath2)"
         font-family="sans-serif"
         stroke="none"
         id="text272">D-RAW2</text>
    </g>
    <g
       fill="rgb(255,204,0)"
       text-rendering="geometricPrecision"
       shape-rendering="geometricPrecision"
       transform="matrix(1,0,0,1,911,453)"
       stroke="rgb(255,204,0)"
       id="g274">
      <path
         d="M-436.5 -16.1485 L-409.5 -16.1485 L-406.5 -1.1485 L-409.5 13.8515 L-436.5 13.8515 L-433.5 -1.1485 Z"
         fill-rule="evenodd"
         clip-path="url(#clipPath2)"
         stroke="none"
         id="path276" />
    </g>
    <g
       text-rendering="geometricPrecision"
       stroke-miterlimit="1.45"
       shape-rendering="geometricPrecision"
       transform="matrix(1,0,0,1,911,453)"
       stroke-linecap="butt"
       id="g278">
      <path
         fill="none"
         d="M-436.5 -16.1485 L-409.5 -16.1485 L-406.5 -1.1485 L-409.5 13.8515 L-436.5 13.8515 L-433.5 -1.1485 Z"
         fill-rule="evenodd"
         clip-path="url(#clipPath2)"
         id="path280" />
      <text
         x="-428.3408"
         xml:space="preserve"
         y="3.5654"
         clip-path="url(#clipPath2)"
         font-family="sans-serif"
         stroke="none"
         id="text282">+1</text>
      <text
         x="-140.0456"
         xml:space="preserve"
         y="-367.6533"
         clip-path="url(#clipPath2)"
         font-family="sans-serif"
         stroke="none"
         id="text284">New Branch Entry Data</text>
      <path
         fill="none"
         d="M-308.4668 -165 L-265.5 -165"
         clip-path="url(#clipPath2)"
         id="path286" />
      <path
         d="M-257.5 -165 L-269.5 -170 L-266.5 -165 L-269.5 -160 Z"
         clip-path="url(#clipPath2)"
         stroke="none"
         id="path288" />
      <path
         fill="none"
         d="M-227.5 -165 L-198.4827 -165"
         clip-path="url(#clipPath2)"
         id="path290" />
      <path
         d="M-190.4827 -165 L-202.4827 -170 L-199.4827 -165 L-202.4827 -160 Z"
         clip-path="url(#clipPath2)"
         stroke="none"
         id="path292" />
      <path
         fill="none"
         d="M-308.4668 3 L-265.5 3"
         clip-path="url(#clipPath2)"
         id="path294" />
      <path
         d="M-257.5 3 L-269.5 -2 L-266.5 3 L-269.5 8 Z"
         clip-path="url(#clipPath2)"
         stroke="none"
         id="path296" />
      <path
         fill="none"
         d="M-227.5 3 L-198.4827 3"
         clip-path="url(#clipPath2)"
         id="path298" />
      <path
         d="M-190.4827 3 L-202.4827 -2 L-199.4827 3 L-202.4827 8 Z"
         clip-path="url(#clipPath2)"
         stroke="none"
         id="path300" />
      <path
         fill="none"
         d="M-535.7648 -91.7662 L-555.7599 -91.7662 L-555.7599 -90.6062 L-559.7059 -90.6062"
         clip-path="url(#clipPath2)"
         id="path302" />
      <path
         d="M-559.7059 -90.6062 L-547.7059 -85.6062 L-550.7059 -90.6062 L-547.7059 -95.6062 Z"
         clip-path="url(#clipPath2)"
         stroke="none"
         id="path304" />
      <path
         fill="none"
         d="M-593.6995 -106.7662 L-593.6995 -146.8391 L-569.5229 -146.8391"
         clip-path="url(#clipPath2)"
         id="path306" />
      <path
         d="M-561.5229 -146.8391 L-573.5229 -151.8391 L-570.5229 -146.8391 L-573.5229 -141.8391 Z"
         clip-path="url(#clipPath2)"
         stroke="none"
         id="path308" />
      <text
         x="-646.7122"
         xml:space="preserve"
         y="-140.6294"
         clip-path="url(#clipPath2)"
         font-family="sans-serif"
         stroke="none"
         id="text310">PC input</text>
      <path
         fill="none"
         d="M-492.5203 -130.7436 L-492.5203 133 L-265.5 133"
         clip-path="url(#clipPath2)"
         id="path312" />
      <path
         d="M-257.5 133 L-269.5 128 L-266.5 133 L-269.5 138 Z"
         clip-path="url(#clipPath2)"
         stroke="none"
         id="path314" />
      <path
         fill="none"
         d="M-492.2464 -130.7238 L-492.2464 -91.7662 L-500.7586 -91.7662"
         clip-path="url(#clipPath2)"
         id="path316" />
      <path
         d="M-508.7586 -91.7662 L-496.7586 -86.7662 L-499.7586 -91.7662 L-496.7586 -96.7662 Z"
         clip-path="url(#clipPath2)"
         stroke="none"
         id="path318" />
      <text
         x="-516.9847"
         xml:space="preserve"
         y="-135.9331"
         clip-path="url(#clipPath2)"
         font-family="sans-serif"
         stroke="none"
         id="text320">PC target</text>
      <path
         fill="none"
         d="M-492.2464 -130.7238 L-492.2464 -91.7662 L-412.7482 -91.7662 L-412.7482 -164.2677 L-384.4922 -164.2677"
         clip-path="url(#clipPath2)"
         id="path322" />
      <path
         d="M-376.4922 -164.2677 L-388.4922 -169.2677 L-385.4922 -164.2677 L-388.4922 -159.2677 Z"
         clip-path="url(#clipPath2)"
         stroke="none"
         id="path324" />
      <path
         fill="none"
         d="M-730.3892 -175.8391 L-569.5183 -175.8391"
         clip-path="url(#clipPath2)"
         id="path326" />
      <path
         d="M-561.5183 -175.8391 L-573.5183 -180.8391 L-570.5183 -175.8391 L-573.5183 -170.8391 Z"
         clip-path="url(#clipPath2)"
         stroke="none"
         id="path328" />
      <path
         fill="none"
         d="M-721.5583 -284.4383 L-721.5583 -210.8391 L-569.4896 -210.8391"
         clip-path="url(#clipPath2)"
         id="path330" />
      <path
         d="M-561.4896 -210.8391 L-573.4896 -215.8391 L-570.4896 -210.8391 L-573.4896 -205.8391 Z"
         clip-path="url(#clipPath2)"
         stroke="none"
         id="path332" />
      <path
         fill="none"
         d="M-111.5231 -169.7073 L-83.57 -169.7073 L-83.57 -269.303 L-46.97 -269.303"
         clip-path="url(#clipPath2)"
         id="path334" />
      <path
         d="M-38.97 -269.303 L-50.97 -274.303 L-47.97 -269.303 L-50.97 -264.303 Z"
         clip-path="url(#clipPath2)"
         stroke="none"
         id="path336" />
      <path
         fill="none"
         d="M-111.5231 -169.7073 L-83.57 -169.7073 L-83.57 -234.5353 L-46.97 -234.5353"
         clip-path="url(#clipPath2)"
         id="path338" />
      <path
         d="M-38.97 -234.5353 L-50.97 -239.5353 L-47.97 -234.5353 L-50.97 -229.5353 Z"
         clip-path="url(#clipPath2)"
         stroke="none"
         id="path340" />
      <path
         fill="none"
         d="M-111.5231 -169.7073 L-83.57 -169.7073 L-83.57 -199.7677 L-46.97 -199.7677"
         clip-path="url(#clipPath2)"
         id="path342" />
      <path
         d="M-38.97 -199.7677 L-50.97 -204.7677 L-47.97 -199.7677 L-50.97 -194.7677 Z"
         clip-path="url(#clipPath2)"
         stroke="none"
         id="path344" />
      <path
         fill="none"
         d="M-111.5231 -169.7073 L-83.57 -169.7073 L-83.57 -165 L-46.97 -165"
         clip-path="url(#clipPath2)"
         id="path346" />
      <path
         d="M-38.97 -165 L-50.97 -170 L-47.97 -165 L-50.97 -160 Z"
         clip-path="url(#clipPath2)"
         stroke="none"
         id="path348" />
      <path
         fill="none"
         d="M-111.5231 -169.7073 L-83.57 -169.7073 L-83.57 -129.2707 L-46.97 -129.2707"
         clip-path="url(#clipPath2)"
         id="path350" />
      <path
         d="M-38.97 -129.2707 L-50.97 -134.2707 L-47.97 -129.2707 L-50.97 -124.2707 Z"
         clip-path="url(#clipPath2)"
         stroke="none"
         id="path352" />
      <path
         fill="none"
         d="M-111.5267 3 L-75.235 3 L-75.235 -44.5353 L-46.97 -44.5353"
         clip-path="url(#clipPath2)"
         id="path354" />
      <path
         d="M-38.97 -44.5353 L-50.97 -49.5353 L-47.97 -44.5353 L-50.97 -39.5353 Z"
         clip-path="url(#clipPath2)"
         stroke="none"
         id="path356" />
      <path
         fill="none"
         d="M-111.5267 3 L-75.235 3 L-75.235 -9.7677 L-46.97 -9.7677"
         clip-path="url(#clipPath2)"
         id="path358" />
      <path
         d="M-38.97 -9.7677 L-50.97 -14.7677 L-47.97 -9.7677 L-50.97 -4.7677 Z"
         clip-path="url(#clipPath2)"
         stroke="none"
         id="path360" />
      <path
         fill="none"
         d="M-111.5267 3 L-75.235 3 L-75.235 25 L-46.97 25"
         clip-path="url(#clipPath2)"
         id="path362" />
      <path
         d="M-38.97 25 L-50.97 20 L-47.97 25 L-50.97 30 Z"
         clip-path="url(#clipPath2)"
         stroke="none"
         id="path364" />
      <path
         fill="none"
         d="M-111.5267 3 L-75.235 3 L-75.235 59.7677 L-46.97 59.7677"
         clip-path="url(#clipPath2)"
         id="path366" />
      <path
         d="M-38.97 59.7677 L-50.97 54.7677 L-47.97 59.7677 L-50.97 64.7677 Z"
         clip-path="url(#clipPath2)"
         stroke="none"
         id="path368" />
      <path
         fill="none"
         d="M-111.5267 3 L-75.235 3 L-75.235 95.497 L-46.97 95.497"
         clip-path="url(#clipPath2)"
         id="path370" />
      <path
         d="M-38.97 95.497 L-50.97 90.497 L-47.97 95.497 L-50.97 100.497 Z"
         clip-path="url(#clipPath2)"
         stroke="none"
         id="path372" />
      <path
         fill="none"
         d="M-8.97 -9.7677 L90.0083 -9.7677 L90.0083 59.7677 L98 59.7677"
         clip-path="url(#clipPath2)"
         id="path374" />
      <path
         d="M106 59.7677 L94 54.7677 L97 59.7677 L94 64.7677 Z"
         clip-path="url(#clipPath2)"
         stroke="none"
         id="path376" />
      <path
         fill="none"
         d="M-8.97 -234.5353 L6.8083 -234.5353 L6.8083 68.3278 L98.0128 68.3278"
         clip-path="url(#clipPath2)"
         id="path378" />
      <path
         d="M106.0128 68.3278 L94.0128 63.3278 L97.0128 68.3278 L94.0128 73.3278 Z"
         clip-path="url(#clipPath2)"
         stroke="none"
         id="path380" />
      <path
         fill="none"
         d="M-8.97 -269.303 L19.515 -269.303 L19.515 -241.5353 L97.9864 -241.5353"
         clip-path="url(#clipPath2)"
         id="path382" />
      <path
         d="M105.9864 -241.5353 L93.9864 -246.5353 L96.9864 -241.5353 L93.9864 -236.5353 Z"
         clip-path="url(#clipPath2)"
         stroke="none"
         id="path384" />
      <path
         fill="none"
         d="M-8.97 25 L48.515 25 L48.515 -230.5353 L97.9908 -230.5353"
         clip-path="url(#clipPath2)"
         id="path386" />
      <path
         d="M105.9908 -230.5353 L93.9908 -235.5353 L96.9908 -230.5353 L93.9908 -225.5353 Z"
         clip-path="url(#clipPath2)"
         stroke="none"
         id="path388" />
      <path
         fill="none"
         d="M-8.97 -234.5353 L6.8083 -234.5353 L6.8083 -136.4707 L98.0046 -136.4707"
         clip-path="url(#clipPath2)"
         id="path390" />
      <path
         d="M106.0046 -136.4707 L94.0046 -141.4707 L97.0046 -136.4707 L94.0046 -131.4707 Z"
         clip-path="url(#clipPath2)"
         stroke="none"
         id="path392" />
      <path
         fill="none"
         d="M-8.97 95.497 L74.8 95.497 L74.8 -129.2707 L98.0174 -129.2707"
         clip-path="url(#clipPath2)"
         id="path394" />
      <path
         d="M106.0174 -129.2707 L94.0174 -134.2707 L97.0174 -129.2707 L94.0174 -124.2707 Z"
         clip-path="url(#clipPath2)"
         stroke="none"
         id="path396" />
      <path
         fill="none"
         d="M-8.97 -269.303 L19.515 -269.303 L19.515 -57.9374 L97.9864 -57.9374"
         clip-path="url(#clipPath2)"
         id="path398" />
      <path
         d="M105.9864 -57.9374 L93.9864 -62.9374 L96.9864 -57.9374 L93.9864 -52.9374 Z"
         clip-path="url(#clipPath2)"
         stroke="none"
         id="path400" />
      <path
         fill="none"
         d="M-8.97 -44.5353 L97.9994 -44.5353"
         clip-path="url(#clipPath2)"
         id="path402" />
      <path
         d="M105.9994 -44.5353 L93.9994 -49.5353 L96.9994 -44.5353 L93.9994 -39.5353 Z"
         clip-path="url(#clipPath2)"
         stroke="none"
         id="path404" />
      <path
         fill="none"
         d="M-8.97 -269.303 L19.515 -269.303 L19.515 -199.7677 L97.9864 -199.7677"
         clip-path="url(#clipPath2)"
         id="path406" />
      <path
         d="M105.9864 -199.7677 L93.9864 -204.7677 L96.9864 -199.7677 L93.9864 -194.7677 Z"
         clip-path="url(#clipPath2)"
         stroke="none"
         id="path408" />
      <path
         fill="none"
         d="M-8.97 59.7677 L62 59.7677 L62 -191.5353 L97.9736 -191.5353"
         clip-path="url(#clipPath2)"
         id="path410" />
      <path
         d="M105.9736 -191.5353 L93.9736 -196.5353 L96.9736 -191.5353 L93.9736 -186.5353 Z"
         clip-path="url(#clipPath2)"
         stroke="none"
         id="path412" />
      <path
         fill="none"
         d="M-492.2464 -130.759 L-492.2464 -1.1485 L-441.4868 -1.1485"
         clip-path="url(#clipPath2)"
         id="path414" />
      <path
         d="M-433.4868 -1.1485 L-445.4868 -6.1485 L-442.4868 -1.1485 L-445.4868 3.8515 Z"
         clip-path="url(#clipPath2)"
         stroke="none"
         id="path416" />
      <path
         fill="none"
         d="M-406.485 -1.1485 L-384.4622 -1.1485"
         clip-path="url(#clipPath2)"
         id="path418" />
      <path
         d="M-376.4622 -1.1485 L-388.4622 -6.1485 L-385.4622 -1.1485 L-388.4622 3.8515 Z"
         clip-path="url(#clipPath2)"
         stroke="none"
         id="path420" />
      <path
         fill="none"
         d="M-227.5 -165 L-216.7097 -165 L-216.7097 -381.664 L-167.858 -381.664"
         clip-path="url(#clipPath2)"
         id="path422" />
      <path
         d="M-159.858 -381.664 L-171.858 -386.664 L-168.858 -381.664 L-171.858 -376.664 Z"
         clip-path="url(#clipPath2)"
         stroke="none"
         id="path424" />
      <path
         fill="none"
         d="M-227.5 3 L-210.5 3 L-210.5 -372.3672 L-167.8532 -372.3672"
         clip-path="url(#clipPath2)"
         id="path426" />
      <path
         d="M-159.8532 -372.3672 L-171.8532 -377.3672 L-168.8532 -372.3672 L-171.8532 -367.3672 Z"
         clip-path="url(#clipPath2)"
         stroke="none"
         id="path428" />
      <path
         fill="none"
         d="M-8.97 -269.303 L19.515 -269.303 L19.515 -367.7099 L13.1659 -367.7099"
         clip-path="url(#clipPath2)"
         id="path430" />
      <path
         d="M5.1659 -367.7099 L17.1659 -362.7099 L14.1659 -367.7099 L17.1659 -372.7099 Z"
         clip-path="url(#clipPath2)"
         stroke="none"
         id="path432" />
      <path
         fill="none"
         d="M-8.97 -44.5353 L25.1468 -44.5353 L25.1468 -376.3021 L13.1523 -376.3021"
         clip-path="url(#clipPath2)"
         id="path434" />
      <path
         d="M5.1523 -376.3021 L17.1523 -371.3021 L14.1523 -376.3021 L17.1523 -381.3021 Z"
         clip-path="url(#clipPath2)"
         stroke="none"
         id="path436" />
      <path
         fill="none"
         d="M-77.3532 -387.3672 L-77.3532 -437.604 L-721.5583 -437.604 L-721.5583 -322.4383"
         clip-path="url(#clipPath2)"
         id="path438" />
      <path
         d="M-721.5583 -314.4383 L-716.5583 -326.4383 L-721.5583 -323.4383 L-726.5583 -326.4383 Z"
         clip-path="url(#clipPath2)"
         stroke="none"
         id="path440" />
    </g>
  </g>
</svg>
